<svg width="18" height="18" viewBox="0 0 18 18" fill="none" xmlns="http://www.w3.org/2000/svg">
<g clip-path="url(#clip0_304_20233)">
<path d="M9 0C7.21997 0 5.47991 0.527841 3.99987 1.51677C2.51983 2.50571 1.36627 3.91131 0.685084 5.55585C0.00389576 7.20038 -0.174334 9.00998 0.172933 10.7558C0.5202 12.5016 1.37737 14.1053 2.63604 15.364C3.89471 16.6226 5.49836 17.4798 7.24419 17.8271C8.99002 18.1743 10.7996 17.9961 12.4442 17.3149C14.0887 16.6337 15.4943 15.4802 16.4832 14.0001C17.4722 12.5201 18 10.78 18 9C18 6.61305 17.0518 4.32387 15.364 2.63604C13.6761 0.948212 11.3869 0 9 0V0ZM2 9C1.99842 7.70048 2.35903 6.42624 3.04135 5.32026C3.72368 4.21429 4.70073 3.32036 5.86284 2.73878C7.02496 2.1572 8.32616 1.911 9.62042 2.02779C10.9147 2.14459 12.1508 2.61977 13.19 3.4L3.4 13.19C2.48972 11.9829 1.99818 10.5118 2 9V9ZM9 16C7.48817 16.0019 6.01702 15.5103 4.81 14.6L14.6 4.81C15.3802 5.84922 15.8554 7.08532 15.9722 8.37958C16.089 9.67384 15.8428 10.975 15.2612 12.1372C14.6796 13.2993 13.7857 14.2763 12.6797 14.9586C11.5738 15.641 10.2995 16.0016 9 16Z" fill="black"/>
</g>
<defs>
<clipPath id="clip0_304_20233">
<rect width="18" height="18" fill="white"/>
</clipPath>
</defs>
</svg>
