<svg width="169" height="164" viewBox="0 0 169 164" fill="none" xmlns="http://www.w3.org/2000/svg">
<mask id="path-1-inside-1_8_378" fill="white">
<path fill-rule="evenodd" clip-rule="evenodd" d="M91.8036 8L49.8935 8C46.9803 8 44.4881 10.0926 43.984 12.9618L37.6237 49.1669C51.8658 46.371 66.9925 45 82 45C92.3556 45 102.768 45.6528 112.907 46.9761C108.602 32.6612 101.568 19.2761 91.8036 8ZM116.311 61.6063C105.283 59.8785 93.6812 59 82 59C65.7391 59 49.632 60.7024 35.0129 64.0284L29.0998 97.6874C45.9413 102.516 65.3585 105 85 105C95.5996 105 106.134 104.277 116.233 102.852C118.563 89.2608 118.589 75.2076 116.311 61.6063ZM130.79 100.239C132.372 88.3978 132.403 76.3218 130.883 64.4709C140.897 66.8673 150.173 70.0377 158.269 73.9562L154.949 92.8559C147.579 95.8687 139.436 98.3353 130.79 100.239ZM112.791 117.409C103.641 118.474 94.2974 119 85 119C64.9721 119 44.7319 116.558 26.665 111.547L20.0921 148.962C19.4469 152.635 22.2727 156 26.0016 156H44.8557H91.8036C101.48 144.825 108.476 131.579 112.791 117.409ZM109.527 156C118.15 143.676 124.292 129.735 127.952 115.107C136.379 113.516 144.51 111.43 152.141 108.838L144.727 151.038C144.223 153.907 141.731 156 138.818 156H109.527ZM128.105 49.5143C124.465 34.6599 118.272 20.4981 109.527 8L143.856 8H162.71C166.439 8 169.264 11.3655 168.619 15.0381L160.775 59.689C150.895 55.3023 139.816 51.9208 128.105 49.5143Z"/>
</mask>
<path fill-rule="evenodd" clip-rule="evenodd" d="M91.8036 8L49.8935 8C46.9803 8 44.4881 10.0926 43.984 12.9618L37.6237 49.1669C51.8658 46.371 66.9925 45 82 45C92.3556 45 102.768 45.6528 112.907 46.9761C108.602 32.6612 101.568 19.2761 91.8036 8ZM116.311 61.6063C105.283 59.8785 93.6812 59 82 59C65.7391 59 49.632 60.7024 35.0129 64.0284L29.0998 97.6874C45.9413 102.516 65.3585 105 85 105C95.5996 105 106.134 104.277 116.233 102.852C118.563 89.2608 118.589 75.2076 116.311 61.6063ZM130.79 100.239C132.372 88.3978 132.403 76.3218 130.883 64.4709C140.897 66.8673 150.173 70.0377 158.269 73.9562L154.949 92.8559C147.579 95.8687 139.436 98.3353 130.79 100.239ZM112.791 117.409C103.641 118.474 94.2974 119 85 119C64.9721 119 44.7319 116.558 26.665 111.547L20.0921 148.962C19.4469 152.635 22.2727 156 26.0016 156H44.8557H91.8036C101.48 144.825 108.476 131.579 112.791 117.409ZM109.527 156C118.15 143.676 124.292 129.735 127.952 115.107C136.379 113.516 144.51 111.43 152.141 108.838L144.727 151.038C144.223 153.907 141.731 156 138.818 156H109.527ZM128.105 49.5143C124.465 34.6599 118.272 20.4981 109.527 8L143.856 8H162.71C166.439 8 169.264 11.3655 168.619 15.0381L160.775 59.689C150.895 55.3023 139.816 51.9208 128.105 49.5143Z" fill="black"/>
<path d="M49.8935 8L49.8935 7H49.8935V8ZM91.8036 8L92.5596 7.3454L92.2605 7L91.8036 7L91.8036 8ZM43.984 12.9618L42.9991 12.7888L42.9991 12.7888L43.984 12.9618ZM37.6237 49.1669L36.6387 48.9939L36.3867 50.4289L37.8163 50.1482L37.6237 49.1669ZM112.907 46.9761L112.778 47.9677L114.31 48.1676L113.865 46.6881L112.907 46.9761ZM116.311 61.6063L117.297 61.4411L117.178 60.73L116.466 60.6184L116.311 61.6063ZM35.0129 64.0284L34.791 63.0533L34.1429 63.2008L34.0279 63.8554L35.0129 64.0284ZM29.0998 97.6874L28.1149 97.5143L27.9592 98.4006L28.8242 98.6486L29.0998 97.6874ZM116.233 102.852L116.373 103.842L117.096 103.74L117.219 103.021L116.233 102.852ZM130.883 64.4709L131.116 63.4984L129.707 63.1613L129.892 64.5981L130.883 64.4709ZM130.79 100.239L129.799 100.107L129.61 101.523L131.006 101.216L130.79 100.239ZM158.269 73.9562L159.254 74.1292L159.384 73.3852L158.704 73.0561L158.269 73.9562ZM154.949 92.8559L155.327 93.7815L155.838 93.5726L155.933 93.0289L154.949 92.8559ZM112.791 117.409L113.748 117.7L114.193 116.239L112.675 116.415L112.791 117.409ZM26.665 111.547L26.9323 110.583L25.8707 110.289L25.6801 111.374L26.665 111.547ZM20.0921 148.962L19.1072 148.789L19.1072 148.789L20.0921 148.962ZM91.8036 156V157H92.2605L92.5596 156.655L91.8036 156ZM127.952 115.107L127.766 114.125L127.137 114.244L126.981 114.865L127.952 115.107ZM109.527 156L108.708 155.427L107.607 157H109.527V156ZM152.141 108.838L153.126 109.011L153.418 107.349L151.819 107.891L152.141 108.838ZM144.727 151.038L145.712 151.211L145.712 151.211L144.727 151.038ZM109.527 8L109.527 7L107.607 7L108.707 8.57331L109.527 8ZM128.105 49.5143L127.134 49.7523L127.285 50.3665L127.904 50.4938L128.105 49.5143ZM143.856 8L143.856 9H143.856V8ZM168.619 15.0381L167.634 14.8651L167.634 14.8651L168.619 15.0381ZM160.775 59.689L160.369 60.603L161.539 61.1222L161.76 59.862L160.775 59.689ZM49.8935 9L91.8036 9L91.8036 7L49.8935 7L49.8935 9ZM44.9689 13.1349C45.389 10.7438 47.4659 9 49.8935 9V7C46.4948 7 43.5872 9.44136 42.9991 12.7888L44.9689 13.1349ZM38.6086 49.34L44.9689 13.1349L42.9991 12.7888L36.6387 48.9939L38.6086 49.34ZM82 44C66.9335 44 51.742 45.3763 37.431 48.1857L37.8163 50.1482C51.9897 47.3658 67.0516 46 82 46V44ZM113.037 45.9845C102.853 44.6554 92.3971 44 82 44V46C92.3142 46 102.683 46.6502 112.778 47.9677L113.037 45.9845ZM113.865 46.6881C109.523 32.2512 102.425 18.7379 92.5596 7.3454L91.0476 8.65461C100.711 19.8142 107.681 33.0711 111.95 47.2641L113.865 46.6881ZM82 60C93.632 60 105.182 60.8749 116.156 62.5943L116.466 60.6184C105.384 58.8821 93.7303 58 82 58V60ZM35.2347 65.0035C49.774 61.6957 65.8061 60 82 60V58C65.6721 58 49.4901 59.7092 34.791 63.0533L35.2347 65.0035ZM30.0847 97.8604L35.9978 64.2014L34.0279 63.8554L28.1149 97.5143L30.0847 97.8604ZM85 104C65.4374 104 46.1145 101.526 29.3754 96.7261L28.8242 98.6486C45.7681 103.507 65.2796 106 85 106V104ZM116.094 101.862C106.042 103.28 95.5548 104 85 104V106C95.6444 106 106.225 105.274 116.373 103.842L116.094 101.862ZM117.219 103.021C119.567 89.3191 119.593 75.1529 117.297 61.4411L115.325 61.7715C117.584 75.2622 117.558 89.2024 115.248 102.683L117.219 103.021ZM129.892 64.5981C131.4 76.3628 131.369 88.3516 129.799 100.107L131.782 100.372C133.374 88.444 133.405 76.2807 131.875 64.3438L129.892 64.5981ZM130.651 65.4435C140.609 67.8265 149.814 70.975 157.833 74.8563L158.704 73.0561C150.532 69.1004 141.186 65.9081 131.116 63.4984L130.651 65.4435ZM157.284 73.7832L153.964 92.6828L155.933 93.0289L159.254 74.1292L157.284 73.7832ZM154.57 91.9302C147.261 94.9183 139.174 97.3691 130.575 99.2629L131.006 101.216C139.698 99.3015 147.897 96.8191 155.327 93.7815L154.57 91.9302ZM85 120C94.3348 120 103.717 119.472 112.907 118.402L112.675 116.415C103.565 117.476 94.2601 118 85 118V120ZM26.3977 112.51C44.5642 117.549 64.8958 120 85 120V118C65.0485 118 44.8997 115.567 26.9323 110.583L26.3977 112.51ZM21.077 149.135L27.65 111.72L25.6801 111.374L19.1072 148.789L21.077 149.135ZM26.0016 155C22.8942 155 20.5394 152.195 21.077 149.135L19.1072 148.789C18.3545 153.074 21.6512 157 26.0016 157V155ZM44.8557 155H26.0016V157H44.8557V155ZM91.8036 155H44.8557V157H91.8036V155ZM92.5596 156.655C102.336 145.364 109.396 131.991 113.748 117.7L111.834 117.117C107.556 131.166 100.624 144.286 91.0477 155.345L92.5596 156.655ZM126.981 114.865C123.349 129.383 117.256 143.21 108.708 155.427L110.346 156.573C119.044 144.142 125.234 130.087 128.922 115.35L126.981 114.865ZM128.137 116.09C136.605 114.491 144.782 112.393 152.462 109.785L151.819 107.891C144.238 110.466 136.152 112.541 127.766 114.125L128.137 116.09ZM151.156 108.665L143.742 150.865L145.712 151.211L153.126 109.011L151.156 108.665ZM143.742 150.865C143.322 153.256 141.246 155 138.818 155V157C142.217 157 145.124 154.559 145.712 151.211L143.742 150.865ZM138.818 155H109.527V157H138.818V155ZM108.707 8.57331C117.377 20.9626 123.521 35.009 127.134 49.7523L129.077 49.2763C125.409 34.3108 119.168 20.0336 110.346 7.42669L108.707 8.57331ZM109.527 9L143.856 9L143.856 7L109.527 7L109.527 9ZM143.856 9H162.71V7H143.856V9ZM162.71 9C165.817 9 168.172 11.8046 167.634 14.8651L169.604 15.2112C170.357 10.9264 167.06 7 162.71 7V9ZM167.634 14.8651L159.79 59.516L161.76 59.862L169.604 15.2112L167.634 14.8651ZM161.181 58.775C151.224 54.3541 140.075 50.953 128.307 48.5348L127.904 50.4938C139.558 52.8887 150.567 56.2505 160.369 60.603L161.181 58.775Z" fill="black" mask="url(#path-1-inside-1_8_378)"/>
</svg>
